<svg xmlns="http://www.w3.org/2000/svg" height="512pt" version="1.1" viewBox="0 0 512 512" width="512pt">
<g id="surface1">
<path d="M 512 256 C 512 397.386719 397.386719 512 256 512 C 114.613281 512 0 397.386719 0 256 C 0 114.613281 114.613281 0 256 0 C 397.386719 0 512 114.613281 512 256 Z M 512 256 " style=" stroke:none;fill-rule:nonzero;fill:rgb(100%,91.372549%,33.333333%);fill-opacity:1;" />
<path d="M 512 256 C 512 282.050781 508.109375 307.191406 500.871094 330.871094 C 488.738281 370.609375 467.199219 406.238281 438.839844 435.171875 C 392.378906 482.578125 327.621094 512 256 512 C 184.378906 512 119.621094 482.578125 73.171875 435.171875 C 51.789062 413.371094 34.289062 387.761719 21.769531 359.449219 C 7.769531 327.820312 0 292.820312 0 256 C 0 209.78125 12.25 166.429688 33.679688 129 C 77.800781 206.070312 160.839844 258 256 258 C 351.160156 258 434.210938 206.070312 478.320312 129 C 499.75 166.429688 512 209.78125 512 256 Z M 512 256 " style=" stroke:none;fill-rule:nonzero;fill:rgb(100%,81.960784%,7.058824%);fill-opacity:1;" />
<path d="M 438.839844 435.171875 C 392.378906 482.578125 327.621094 512 256 512 C 184.378906 512 119.621094 482.578125 73.171875 435.171875 Z M 438.839844 435.171875 " style=" stroke:none;fill-rule:nonzero;fill:rgb(92.156863%,46.666667%,13.333333%);fill-opacity:1;" />
<path d="M 228.789062 436.058594 L 74.039062 436.058594 C 69 430.96875 64.179688 425.679688 59.589844 420.191406 C 54.421875 414 49.53125 407.578125 44.960938 400.921875 C 47.570312 400.359375 50.28125 400.058594 53.058594 400.058594 C 53.058594 379.070312 70.078125 362.058594 91.058594 362.058594 C 99.238281 362.058594 106.820312 364.648438 113.019531 369.050781 C 120.21875 365.710938 128.238281 363.828125 136.699219 363.828125 C 164.289062 363.828125 187.21875 383.660156 192.070312 409.839844 C 209.011719 410.050781 223.390625 420.921875 228.789062 436.058594 Z M 228.789062 436.058594 " style=" stroke:none;fill-rule:nonzero;fill:rgb(42.352941%,86.27451%,17.647059%);fill-opacity:1;" />
<path d="M 191.25 436.058594 L 74.039062 436.058594 C 69 430.96875 64.179688 425.679688 59.589844 420.191406 C 64.070312 415.570312 70.328125 412.710938 77.269531 412.710938 C 77.269531 399.089844 88.300781 388.058594 101.921875 388.058594 C 107.21875 388.058594 112.128906 389.738281 116.160156 392.589844 C 120.828125 390.429688 126.03125 389.210938 131.519531 389.210938 C 149.410156 389.210938 164.289062 402.070312 167.429688 419.050781 C 178.421875 419.191406 187.75 426.238281 191.25 436.058594 Z M 191.25 436.058594 " style=" stroke:none;fill-rule:nonzero;fill:rgb(0%,62.745098%,25.882353%);fill-opacity:1;" />
<path d="M 467.050781 400.921875 C 463.230469 406.480469 459.191406 411.871094 454.949219 417.101562 C 454.109375 418.140625 453.269531 419.171875 452.410156 420.191406 C 447.820312 425.679688 443 430.980469 437.949219 436.058594 L 283.210938 436.058594 C 288.609375 420.921875 302.988281 410.050781 319.929688 409.839844 C 324.78125 383.660156 347.710938 363.828125 375.300781 363.828125 C 383.761719 363.828125 391.78125 365.710938 398.980469 369.050781 C 405.179688 364.648438 412.761719 362.058594 420.941406 362.058594 C 441.921875 362.058594 458.941406 379.070312 458.941406 400.058594 C 461.71875 400.058594 464.441406 400.359375 467.050781 400.921875 Z M 467.050781 400.921875 " style=" stroke:none;fill-rule:nonzero;fill:rgb(42.352941%,86.27451%,17.647059%);fill-opacity:1;" />
<path d="M 452.410156 420.191406 C 447.820312 425.679688 443 430.980469 437.949219 436.058594 L 320.75 436.058594 C 324.25 426.238281 333.578125 419.191406 344.570312 419.050781 C 347.710938 402.070312 362.589844 389.210938 380.480469 389.210938 C 385.96875 389.210938 391.171875 390.429688 395.839844 392.589844 C 399.871094 389.738281 404.78125 388.058594 410.078125 388.058594 C 423.699219 388.058594 434.730469 399.089844 434.730469 412.710938 C 441.671875 412.710938 447.929688 415.570312 452.410156 420.191406 Z M 452.410156 420.191406 " style=" stroke:none;fill-rule:nonzero;fill:rgb(0%,62.745098%,25.882353%);fill-opacity:1;" />
<path d="M 215.476562 478 L 200.476562 478 L 200.476562 462.191406 C 200.476562 443.984375 215.289062 429.175781 233.492188 429.175781 L 354.554688 429.175781 C 358.230469 429.175781 361.535156 427.441406 363.628906 424.421875 C 365.722656 421.398438 366.183594 417.691406 364.890625 414.25 L 318.003906 289.394531 L 332.042969 284.121094 L 378.929688 408.976562 C 381.933594 416.972656 380.824219 425.941406 375.960938 432.960938 C 371.097656 439.984375 363.09375 444.175781 354.550781 444.175781 L 233.492188 444.175781 C 223.558594 444.175781 215.476562 452.257812 215.476562 462.191406 Z M 215.476562 478 " style=" stroke:none;fill-rule:nonzero;fill:rgb(19.607843%,23.137255%,35.294118%);fill-opacity:1;" />
<path d="M 309.789062 286.761719 L 309.789062 506.328125 C 308.601562 506.589844 307.421875 506.828125 306.230469 507.070312 C 305.371094 507.238281 304.511719 507.410156 303.640625 507.570312 C 302.480469 507.789062 301.320312 508 300.148438 508.210938 C 299.109375 508.390625 298.058594 508.558594 297.019531 508.730469 C 296.28125 508.851562 295.53125 508.960938 294.789062 509.070312 L 294.789062 286.761719 Z M 309.789062 286.761719 " style=" stroke:none;fill-rule:nonzero;fill:rgb(19.607843%,23.137255%,35.294118%);fill-opacity:1;" />
<path d="M 130.800781 121.710938 L 150.9375 146.03125 L 121.078125 170.753906 C 117.171875 173.988281 113.992188 177.859375 111.605469 182.132812 C 106.652344 191.007812 105.148438 201.613281 107.78125 211.808594 L 108.519531 214.660156 C 109.175781 217.195312 108.03125 219.324219 106.257812 220.453125 C 104.183594 221.773438 101.242188 221.730469 99.292969 219.375 L 89.785156 207.890625 C 80.207031 196.320312 78.195312 180.984375 83.1875 167.886719 C 85.578125 161.601562 89.578125 155.835938 95.121094 151.246094 Z M 130.800781 121.710938 " style=" stroke:none;fill-rule:nonzero;fill:rgb(100%,76.862745%,67.058824%);fill-opacity:1;" />
<path d="M 143.480469 137.027344 L 150.9375 146.035156 L 121.078125 170.753906 C 117.171875 173.988281 113.992188 177.859375 111.605469 182.132812 C 106.652344 191.007812 105.148438 201.613281 107.78125 211.808594 L 108.519531 214.664062 C 109.175781 217.195312 108.03125 219.324219 106.257812 220.453125 L 106.070312 220.226562 C 95.644531 207.632812 94.183594 190.574219 100.957031 176.796875 C 103.390625 171.851562 106.882812 167.324219 111.40625 163.582031 Z M 143.480469 137.027344 " style=" stroke:none;fill-rule:nonzero;fill:rgb(100%,65.882353%,47.843137%);fill-opacity:1;" />
<path d="M 231.3125 280.058594 L 231.3125 307.347656 L 206.609375 307.347656 C 185.757812 307.347656 166.277344 299.105469 151.765625 284.140625 C 137.222656 269.140625 129.578125 249.378906 130.246094 228.492188 C 130.898438 208.171875 139.832031 188.988281 154.605469 175.007812 L 191.800781 139.808594 C 191.859375 139.730469 191.917969 139.644531 191.972656 139.558594 C 198.992188 129.242188 185.703125 117.25 176.097656 125.203125 L 130.914062 162.605469 L 126.234375 156.949219 C 125.296875 155.824219 124.425781 154.667969 123.605469 153.484375 C 123.324219 153.078125 123.050781 152.671875 122.78125 152.261719 C 122.078125 151.179688 121.421875 150.070312 120.8125 148.945312 C 118.273438 144.285156 116.546875 139.335938 115.613281 134.28125 C 114.730469 129.515625 114.554688 124.652344 115.058594 119.867188 C 116.394531 107.386719 122.402344 95.394531 132.839844 86.75 C 133.902344 85.871094 134.988281 85.039062 136.097656 84.246094 C 144.042969 78.566406 153.164062 75.074219 162.574219 73.902344 C 168.023438 73.210938 173.570312 73.308594 179.046875 74.195312 C 191.347656 75.996094 203.046875 82.167969 211.578125 92.472656 C 219.035156 101.476562 223.273438 112.871094 223.523438 124.558594 C 223.769531 136.246094 220.015625 147.808594 212.945312 157.117188 L 212.273438 158.011719 L 172.824219 195.335938 C 163.359375 204.296875 157.917969 216.410156 157.519531 229.441406 C 157.109375 242.75 161.957031 255.351562 171.171875 264.945312 C 180.5625 274.738281 193.691406 280.058594 207.265625 280.058594 Z M 231.3125 280.058594 " style=" stroke:none;fill-rule:nonzero;fill:rgb(100%,44.313725%,58.431373%);fill-opacity:1;" />
<path d="M 206.609375 294.15625 C 189.359375 294.15625 173.246094 287.332031 161.234375 274.953125 C 149.203125 262.542969 142.878906 246.195312 143.433594 228.917969 C 143.964844 212.417969 151.339844 196.261719 163.671875 184.59375 L 201.839844 148.472656 L 202.882812 146.980469 C 209.765625 136.867188 208.242188 124.046875 199.183594 115.800781 C 194.558594 111.589844 188.777344 109.472656 182.996094 109.472656 C 177.589844 109.472656 172.175781 111.320312 167.679688 115.042969 C 167.679688 115.042969 123.324219 153.078125 123.605469 153.480469 C 124.425781 154.667969 125.296875 155.824219 126.234375 156.949219 L 130.914062 162.605469 L 176.097656 125.203125 C 185.703125 117.25 198.992188 129.242188 191.972656 139.554688 C 191.917969 139.640625 191.859375 139.726562 191.800781 139.808594 L 154.605469 175.007812 C 139.832031 188.988281 130.898438 208.167969 130.246094 228.492188 C 129.578125 249.378906 137.222656 269.140625 151.765625 284.136719 C 166.277344 299.105469 185.757812 307.347656 206.609375 307.347656 L 231.3125 307.347656 L 231.3125 294.152344 L 206.609375 294.152344 Z M 206.609375 294.15625 " style=" stroke:none;fill-rule:nonzero;fill:rgb(92.941176%,33.72549%,50.588235%);fill-opacity:1;" />
<path d="M 151.5 107.09375 C 147.027344 101.695312 139.027344 100.941406 133.628906 105.410156 C 128.230469 109.878906 127.476562 117.878906 131.945312 123.277344 C 136.414062 128.679688 144.417969 129.433594 149.816406 124.960938 C 155.214844 120.492188 155.96875 112.492188 151.5 107.09375 Z M 151.5 107.09375 " style=" stroke:none;fill-rule:nonzero;fill:rgb(100%,100%,100%);fill-opacity:1;" />
<path d="M 100.957031 176.796875 C 94.179688 190.574219 95.644531 207.632812 106.070312 220.226562 L 106.257812 220.453125 C 104.183594 221.773438 101.242188 221.730469 99.292969 219.378906 L 89.785156 207.894531 C 80.203125 196.320312 78.191406 180.984375 83.1875 167.886719 Z M 100.957031 176.796875 " style=" stroke:none;fill-rule:nonzero;fill:rgb(32.54902%,36.862745%,53.72549%);fill-opacity:1;" />
<path d="M 111.605469 182.132812 C 106.652344 191.007812 105.144531 201.613281 107.78125 211.808594 L 108.519531 214.664062 C 109.171875 217.195312 108.03125 219.324219 106.257812 220.453125 L 106.070312 220.226562 C 95.644531 207.632812 94.179688 190.574219 100.957031 176.796875 Z M 111.605469 182.132812 " style=" stroke:none;fill-rule:nonzero;fill:rgb(19.607843%,23.137255%,35.294118%);fill-opacity:1;" />
<path d="M 146.226562 111.457031 C 144.167969 108.96875 140.480469 108.621094 137.992188 110.679688 C 135.503906 112.742188 135.15625 116.425781 137.21875 118.914062 C 139.277344 121.402344 142.964844 121.75 145.453125 119.691406 C 147.9375 117.632812 148.285156 113.945312 146.226562 111.457031 Z M 146.226562 111.457031 " style=" stroke:none;fill-rule:nonzero;fill:rgb(100%,44.313725%,58.431373%);fill-opacity:1;" />
<path d="M 144 113.300781 C 142.957031 112.042969 141.09375 111.867188 139.835938 112.910156 C 138.578125 113.949219 138.402344 115.8125 139.445312 117.070312 C 140.484375 118.328125 142.351562 118.503906 143.609375 117.464844 C 144.867188 116.421875 145.042969 114.558594 144 113.300781 Z M 144 113.300781 " style=" stroke:none;fill-rule:nonzero;fill:rgb(19.607843%,23.137255%,35.294118%);fill-opacity:1;" />
<path d="M 431.457031 307.347656 L 207.976562 307.347656 L 207.976562 284.519531 C 207.976562 264.503906 213.917969 245.851562 224.121094 230.226562 C 241.902344 203.003906 272.644531 184.980469 307.511719 184.980469 C 325.757812 184.980469 343.640625 189.988281 359.230469 199.46875 C 361.34375 200.75 363.398438 202.109375 365.398438 203.542969 C 366.390625 204.25 367.363281 204.976562 368.320312 205.714844 C 379.777344 214.546875 389.195312 225.796875 395.894531 238.71875 L 420.785156 286.757812 Z M 431.457031 307.347656 " style=" stroke:none;fill-rule:nonzero;fill:rgb(100%,44.313725%,58.431373%);fill-opacity:1;" />
<path d="M 431.457031 307.347656 L 300.667969 307.347656 C 300.621094 307.339844 300.585938 307.332031 300.582031 307.332031 C 237.839844 306.058594 233.71875 213.398438 296.070312 206.226562 C 298.082031 205.992188 334.449219 205.820312 368.320312 205.714844 C 379.777344 214.546875 389.195312 225.796875 395.894531 238.71875 L 420.785156 286.757812 Z M 431.457031 307.347656 " style=" stroke:none;fill-rule:nonzero;fill:rgb(92.941176%,33.72549%,50.588235%);fill-opacity:1;" />
<path d="M 420.78125 286.761719 L 302.289062 286.761719 C 301.71875 286.761719 301.148438 286.75 300.578125 286.738281 C 242.28125 285.550781 234.601562 205.46875 283.820312 188.390625 C 287.570312 187.078125 291.648438 186.148438 296.070312 185.640625 C 299.820312 185.199219 303.640625 184.980469 307.511719 184.980469 C 325.761719 184.980469 343.640625 189.988281 359.230469 199.46875 C 374.820312 208.949219 387.5 222.519531 395.890625 238.71875 Z M 420.78125 286.761719 " style=" stroke:none;fill-rule:nonzero;fill:rgb(100%,44.313725%,58.431373%);fill-opacity:1;" />
<path d="M 371.289062 286.761719 L 302.289062 286.761719 C 301.71875 286.761719 301.148438 286.75 300.578125 286.738281 C 242.28125 285.550781 234.601562 205.46875 283.820312 188.390625 C 292.898438 190.820312 301.621094 194.539062 309.730469 199.46875 C 325.320312 208.949219 338 222.519531 346.398438 238.71875 Z M 371.289062 286.761719 " style=" stroke:none;fill-rule:nonzero;fill:rgb(97.647059%,64.705882%,74.117647%);fill-opacity:1;" />
<path d="M 135.0625 325.460938 C 135.0625 325.402344 135.066406 325.34375 135.066406 325.285156 C 135.066406 314.4375 126.273438 305.644531 115.425781 305.644531 C 112.847656 305.644531 110.390625 306.144531 108.132812 307.046875 C 103.777344 299.242188 95.445312 293.964844 85.871094 293.964844 C 73.445312 293.964844 63.097656 302.863281 60.851562 314.640625 C 60.179688 314.542969 59.496094 314.492188 58.800781 314.492188 C 52.039062 314.492188 46.378906 319.167969 44.867188 325.460938 Z M 135.0625 325.460938 " style=" stroke:none;fill-rule:nonzero;fill:rgb(100%,100%,100%);fill-opacity:1;" />
<path d="M 115.898438 325.460938 C 115.898438 325.429688 115.902344 325.394531 115.902344 325.359375 C 115.902344 319.121094 110.84375 314.066406 104.605469 314.066406 C 103.125 314.066406 101.710938 314.351562 100.414062 314.871094 C 97.910156 310.386719 93.117188 307.347656 87.613281 307.347656 C 80.46875 307.347656 74.519531 312.46875 73.226562 319.238281 C 72.839844 319.183594 72.445312 319.152344 72.046875 319.152344 C 68.160156 319.152344 64.902344 321.84375 64.03125 325.460938 Z M 115.898438 325.460938 " style=" stroke:none;fill-rule:nonzero;fill:rgb(81.568627%,96.470588%,100%);fill-opacity:1;" />
<path d="M 503.074219 240.460938 C 503.074219 240.402344 503.078125 240.34375 503.078125 240.285156 C 503.078125 229.4375 494.285156 220.644531 483.4375 220.644531 C 480.859375 220.644531 478.398438 221.144531 476.144531 222.046875 C 471.789062 214.242188 463.453125 208.964844 453.882812 208.964844 C 441.453125 208.964844 431.109375 217.863281 428.859375 229.640625 C 428.191406 229.542969 427.507812 229.492188 426.808594 229.492188 C 420.050781 229.492188 414.390625 234.167969 412.878906 240.460938 Z M 503.074219 240.460938 " style=" stroke:none;fill-rule:nonzero;fill:rgb(100%,100%,100%);fill-opacity:1;" />
<path d="M 483.910156 240.460938 C 483.910156 240.429688 483.910156 240.394531 483.910156 240.359375 C 483.910156 234.121094 478.855469 229.066406 472.617188 229.066406 C 471.136719 229.066406 469.722656 229.351562 468.425781 229.871094 C 465.921875 225.386719 461.128906 222.347656 455.625 222.347656 C 448.476562 222.347656 442.527344 227.46875 441.234375 234.238281 C 440.851562 234.183594 440.457031 234.152344 440.054688 234.152344 C 436.167969 234.152344 432.914062 236.84375 432.042969 240.460938 Z M 483.910156 240.460938 " style=" stroke:none;fill-rule:nonzero;fill:rgb(81.568627%,96.470588%,100%);fill-opacity:1;" />
<path d="M 346.648438 113.078125 C 346.648438 113.019531 346.652344 112.960938 346.652344 112.902344 C 346.652344 102.054688 337.859375 93.261719 327.011719 93.261719 C 324.433594 93.261719 321.976562 93.761719 319.71875 94.664062 C 315.363281 86.863281 307.03125 81.582031 297.460938 81.582031 C 285.03125 81.582031 274.683594 90.484375 272.4375 102.257812 C 271.765625 102.160156 271.082031 102.109375 270.386719 102.109375 C 263.628906 102.109375 257.964844 106.785156 256.453125 113.078125 Z M 346.648438 113.078125 " style=" stroke:none;fill-rule:nonzero;fill:rgb(100%,100%,100%);fill-opacity:1;" />
<path d="M 327.484375 113.078125 C 327.484375 113.046875 327.488281 113.011719 327.488281 112.976562 C 327.488281 106.738281 322.429688 101.683594 316.191406 101.683594 C 314.710938 101.683594 313.296875 101.972656 312 102.488281 C 309.496094 98.003906 304.703125 94.96875 299.199219 94.96875 C 292.050781 94.96875 286.101562 100.085938 284.808594 106.855469 C 284.425781 106.800781 284.03125 106.769531 283.628906 106.769531 C 279.742188 106.769531 276.488281 109.460938 275.617188 113.078125 Z M 327.484375 113.078125 " style=" stroke:none;fill-rule:nonzero;fill:rgb(81.568627%,96.470588%,100%);fill-opacity:1;" />
</g>
</svg>