<svg xmlns="http://www.w3.org/2000/svg" height="512pt" version="1.1" viewBox="0 0 512 512" width="512pt">
<g id="surface1">
<path d="M 512 256 C 512 397.386719 397.386719 512 256 512 C 114.613281 512 0 397.386719 0 256 C 0 114.613281 114.613281 0 256 0 C 397.386719 0 512 114.613281 512 256 Z M 512 256 " style=" stroke:none;fill-rule:nonzero;fill:rgb(70.980392%,88.627451%,21.568627%);fill-opacity:1;" />
<path d="M 0 256 C 0 282.050781 3.890625 307.191406 11.128906 330.871094 C 20.828125 362.621094 36.53125 391.761719 56.921875 416.941406 C 103.839844 474.921875 175.589844 512 256 512 C 331.058594 512 398.589844 479.691406 445.410156 428.210938 C 463.808594 407.980469 479.019531 384.800781 490.230469 359.449219 C 504.230469 327.820312 512 292.820312 512 256 C 512 209.78125 499.75 166.429688 478.320312 129 C 434.199219 206.070312 351.160156 258 256 258 C 160.839844 258 77.789062 206.070312 33.679688 129 C 12.25 166.429688 0 209.78125 0 256 Z M 0 256 " style=" stroke:none;fill-rule:nonzero;fill:rgb(58.431373%,83.921569%,0%);fill-opacity:1;" />
<path d="M 481.257812 377.703125 C 474.101562 390.921875 465.828125 403.441406 456.539062 415.128906 C 409.640625 474.148438 337.238281 512 256 512 C 174.761719 512 102.359375 474.148438 55.460938 415.128906 C 46.171875 403.441406 37.898438 390.921875 30.742188 377.703125 Z M 481.257812 377.703125 " style=" stroke:none;fill-rule:nonzero;fill:rgb(5.882353%,60.784314%,90.980392%);fill-opacity:1;" />
<path d="M 252.679688 254.660156 C 250.605469 264.625 248.867188 274.554688 247.464844 284.414062 C 245.773438 296.28125 244.570312 308.046875 243.828125 319.664062 C 242.347656 342.742188 242.6875 365.25 244.722656 386.871094 C 245.285156 392.78125 249.589844 397.660156 255.398438 398.867188 L 294.78125 407.066406 C 300.589844 408.273438 306.488281 405.53125 309.355469 400.332031 C 324.054688 373.679688 336.414062 344.113281 345.714844 312.300781 C 349.117188 300.707031 352.105469 288.808594 354.65625 276.652344 L 354.808594 275.914062 C 357.875 261.183594 360.195312 246.546875 361.800781 232.078125 C 363.125 220.21875 363.957031 208.472656 364.335938 196.890625 C 365.691406 155.367188 361.097656 115.914062 351.375 80.515625 C 350.285156 76.554688 347.183594 74.042969 343.699219 73.316406 C 340.21875 72.59375 336.363281 73.65625 333.785156 76.855469 C 305.773438 111.613281 282.320312 154.886719 266.207031 203.992188 C 262.394531 215.582031 258.996094 227.507812 256.042969 239.726562 C 254.84375 244.65625 253.726562 249.632812 252.679688 254.660156 Z M 252.679688 254.660156 " style=" stroke:none;fill-rule:nonzero;fill:rgb(86.666667%,7.058824%,39.607843%);fill-opacity:1;" />
<path d="M 343.699219 73.320312 L 342.96875 76.820312 L 275.089844 402.96875 L 269.390625 401.78125 L 255.398438 398.871094 C 249.589844 397.660156 245.289062 392.78125 244.71875 386.871094 C 242.691406 365.25 242.351562 342.738281 243.828125 319.660156 C 243.828125 319.5 243.851562 319.339844 243.859375 319.179688 C 243.941406 317.890625 244.039062 316.601562 244.128906 315.300781 C 244.230469 313.851562 244.351562 312.390625 244.46875 310.929688 C 244.558594 309.800781 244.660156 308.660156 244.769531 307.53125 C 244.859375 306.539062 244.949219 305.558594 245.050781 304.558594 C 245.140625 303.53125 245.25 302.488281 245.371094 301.449219 C 245.550781 299.660156 245.75 297.871094 245.960938 296.070312 C 246.078125 295.050781 246.199219 294.03125 246.328125 293.019531 C 246.660156 290.25 247.03125 287.480469 247.429688 284.699219 C 247.441406 284.601562 247.460938 284.511719 247.46875 284.410156 C 248.871094 274.550781 250.601562 264.628906 252.679688 254.660156 C 253.730469 249.628906 254.839844 244.660156 256.039062 239.730469 C 259 227.511719 262.398438 215.578125 266.210938 203.988281 C 282.320312 154.890625 305.769531 111.609375 333.78125 76.859375 C 336.359375 73.660156 340.21875 72.589844 343.699219 73.320312 Z M 343.699219 73.320312 " style=" stroke:none;fill-rule:nonzero;fill:rgb(100%,44.313725%,58.431373%);fill-opacity:1;" />
<path d="M 342.96875 76.820312 L 275.089844 402.96875 L 269.390625 401.78125 C 266.988281 375.890625 266.609375 348.960938 268.378906 321.359375 C 268.390625 321.160156 268.410156 320.960938 268.429688 320.769531 C 268.519531 319.210938 268.628906 317.648438 268.75 316.078125 C 268.871094 314.320312 269.019531 312.558594 269.160156 310.789062 C 269.269531 309.421875 269.390625 308.050781 269.519531 306.679688 C 269.628906 305.488281 269.738281 304.289062 269.859375 303.089844 C 269.980469 301.839844 270.101562 300.578125 270.238281 299.328125 C 270.460938 297.160156 270.699219 294.988281 270.96875 292.820312 C 271.101562 291.589844 271.25 290.359375 271.398438 289.128906 C 271.808594 285.78125 272.25 282.429688 272.730469 279.058594 C 272.75 278.941406 272.769531 278.839844 272.78125 278.71875 C 274.480469 266.789062 276.578125 254.789062 279.089844 242.730469 C 280.351562 236.648438 281.710938 230.628906 283.160156 224.671875 C 286.730469 209.890625 290.839844 195.46875 295.449219 181.449219 C 307.941406 143.390625 324.070312 108.230469 342.96875 76.820312 Z M 342.96875 76.820312 " style=" stroke:none;fill-rule:nonzero;fill:rgb(100%,20.392157%,27.058824%);fill-opacity:1;" />
<path d="M 317.273438 200.296875 L 309.878906 235.835938 L 361.800781 232.078125 C 363.125 220.21875 363.957031 208.472656 364.335938 196.890625 Z M 317.273438 200.296875 " style=" stroke:none;fill-rule:nonzero;fill:rgb(81.568627%,96.470588%,100%);fill-opacity:1;" />
<path d="M 256.042969 239.726562 L 309.878906 235.835938 L 317.277344 200.296875 L 266.210938 203.992188 C 262.394531 215.585938 258.996094 227.507812 256.042969 239.726562 Z M 256.042969 239.726562 " style=" stroke:none;fill-rule:nonzero;fill:rgb(100%,100%,100%);fill-opacity:1;" />
<path d="M 300.566406 280.570312 L 293.175781 316.09375 L 345.71875 312.304688 C 349.117188 300.710938 352.109375 288.808594 354.65625 276.652344 Z M 300.566406 280.570312 " style=" stroke:none;fill-rule:nonzero;fill:rgb(81.568627%,96.470588%,100%);fill-opacity:1;" />
<path d="M 247.464844 284.414062 C 247.453125 284.511719 247.4375 284.597656 247.425781 284.695312 C 247.027344 287.480469 246.664062 290.25 246.324219 293.015625 C 246.195312 294.035156 246.074219 295.050781 245.964844 296.070312 C 245.746094 297.867188 245.546875 299.65625 245.367188 301.449219 C 245.253906 302.488281 245.144531 303.527344 245.050781 304.558594 C 244.953125 305.554688 244.855469 306.542969 244.769531 307.53125 C 244.660156 308.660156 244.5625 309.796875 244.472656 310.929688 C 244.355469 312.386719 244.234375 313.847656 244.132812 315.296875 C 244.035156 316.597656 243.941406 317.886719 243.863281 319.179688 C 243.851562 319.339844 243.835938 319.5 243.828125 319.664062 L 293.175781 316.09375 L 300.566406 280.570312 Z M 247.464844 284.414062 " style=" stroke:none;fill-rule:nonzero;fill:rgb(100%,100%,100%);fill-opacity:1;" />
<path d="M 263.871094 251.339844 C 263.738281 262.699219 263.261719 273.941406 262.429688 285.019531 C 261.441406 298.359375 259.941406 311.46875 257.96875 324.308594 C 254.070312 349.820312 248.320312 374.269531 240.929688 397.351562 C 238.898438 403.660156 233.039062 407.949219 226.421875 407.878906 L 196.941406 407.558594 L 181.539062 407.398438 C 174.921875 407.320312 169.140625 402.921875 167.261719 396.570312 C 157.609375 364.011719 151.210938 328.828125 148.671875 291.929688 C 147.738281 278.480469 147.320312 264.789062 147.449219 250.929688 L 147.460938 250.089844 C 147.640625 233.300781 148.609375 216.789062 150.320312 200.640625 C 151.71875 187.390625 153.621094 174.390625 155.96875 161.679688 C 164.421875 116.101562 178.859375 74.191406 197.921875 37.929688 C 200.058594 33.871094 204.039062 31.878906 208.011719 31.921875 C 208.109375 31.921875 208.21875 31.921875 208.320312 31.929688 C 212.179688 32.070312 215.980469 34.148438 217.96875 38.148438 C 240.199219 82.730469 255.410156 135.5 261.230469 192.878906 C 262.621094 206.429688 263.46875 220.238281 263.769531 234.261719 C 263.898438 239.921875 263.929688 245.609375 263.871094 251.339844 Z M 263.871094 251.339844 " style=" stroke:none;fill-rule:nonzero;fill:rgb(66.666667%,83.529412%,97.647059%);fill-opacity:1;" />
<path d="M 263.871094 251.339844 C 263.738281 262.699219 263.261719 273.941406 262.429688 285.019531 C 261.441406 298.359375 259.941406 311.46875 257.96875 324.308594 C 254.070312 349.820312 248.320312 374.269531 240.929688 397.351562 C 238.898438 403.660156 233.039062 407.949219 226.421875 407.878906 L 196.941406 407.558594 C 192.96875 405.539062 189.890625 401.941406 188.558594 397.460938 C 177.929688 361.609375 170.878906 322.878906 168.089844 282.25 C 167.058594 267.449219 166.609375 252.378906 166.75 237.121094 L 166.761719 236.199219 C 166.960938 217.710938 168.019531 199.539062 169.910156 181.761719 C 171.441406 167.171875 173.539062 152.859375 176.128906 138.859375 C 183.230469 100.53125 194.191406 64.570312 208.320312 31.929688 C 212.179688 32.070312 215.980469 34.148438 217.96875 38.148438 C 240.199219 82.730469 255.410156 135.5 261.230469 192.878906 C 262.621094 206.429688 263.46875 220.238281 263.769531 234.261719 C 263.898438 239.921875 263.929688 245.609375 263.871094 251.339844 Z M 263.871094 251.339844 " style=" stroke:none;fill-rule:nonzero;fill:rgb(39.607843%,69.803922%,100%);fill-opacity:1;" />
<path d="M 263.867188 251.339844 C 263.742188 262.699219 263.261719 273.9375 262.433594 285.019531 C 262.421875 285.128906 262.421875 285.226562 262.410156 285.339844 C 262.175781 288.464844 261.914062 291.574219 261.621094 294.671875 C 261.519531 295.808594 261.40625 296.949219 261.285156 298.085938 C 261.09375 300.09375 260.882812 302.09375 260.648438 304.089844 C 260.527344 305.25 260.394531 306.40625 260.253906 307.558594 C 260.121094 308.664062 259.988281 309.765625 259.847656 310.863281 C 259.691406 312.121094 259.53125 313.378906 259.355469 314.636719 C 259.140625 316.257812 258.921875 317.875 258.683594 319.480469 C 258.476562 320.917969 258.273438 322.347656 258.046875 323.773438 C 258.027344 323.953125 258.003906 324.132812 257.972656 324.3125 C 254.066406 349.824219 248.316406 374.273438 240.925781 397.355469 C 238.898438 403.664062 233.042969 407.949219 226.421875 407.878906 L 203.972656 407.636719 L 208.007812 31.921875 C 211.980469 31.964844 215.925781 34.046875 217.972656 38.148438 C 240.195312 82.726562 255.410156 135.503906 261.234375 192.878906 C 262.617188 206.425781 263.46875 220.234375 263.769531 234.261719 C 263.898438 239.921875 263.929688 245.609375 263.867188 251.339844 Z M 263.867188 251.339844 " style=" stroke:none;fill-rule:nonzero;fill:rgb(5.882353%,60.784314%,90.980392%);fill-opacity:1;" />
<path d="M 179.003906 315.25 C 179.003906 344.210938 190.242188 367.832031 204.382812 369.191406 C 204.800781 369.230469 205.230469 369.25 205.660156 369.25 C 220.390625 369.25 232.332031 345.082031 232.332031 315.25 C 232.332031 285.429688 220.390625 261.25 205.660156 261.25 L 205.542969 261.25 C 190.871094 261.382812 179.003906 285.511719 179.003906 315.25 Z M 179.003906 315.25 " style=" stroke:none;fill-rule:nonzero;fill:rgb(100%,100%,100%);fill-opacity:1;" />
<path d="M 204.382812 369.191406 C 204.800781 369.230469 205.230469 369.25 205.660156 369.25 C 220.390625 369.25 232.332031 345.082031 232.332031 315.25 C 232.332031 285.429688 220.390625 261.25 205.660156 261.25 L 205.539062 261.25 Z M 204.382812 369.191406 " style=" stroke:none;fill-rule:nonzero;fill:rgb(81.568627%,96.470588%,100%);fill-opacity:1;" />
<path d="M 56.921875 416.941406 C 69.910156 432.988281 84.789062 447.429688 101.238281 459.929688 C 144.21875 492.601562 197.839844 512 256 512 C 309.328125 512 358.871094 495.691406 399.871094 467.769531 C 416.570312 456.410156 431.859375 443.109375 445.410156 428.210938 C 383.558594 396.621094 313.5 378.808594 239.28125 378.808594 C 174.410156 378.808594 112.730469 392.421875 56.921875 416.941406 Z M 56.921875 416.941406 " style=" stroke:none;fill-rule:nonzero;fill:rgb(100%,65.882353%,47.843137%);fill-opacity:1;" />
<path d="M 101.238281 459.929688 C 144.21875 492.601562 197.839844 512 256 512 C 309.328125 512 358.871094 495.691406 399.871094 467.769531 C 349.949219 448.878906 295.820312 438.539062 239.28125 438.539062 C 191.148438 438.539062 144.769531 446.03125 101.238281 459.929688 Z M 101.238281 459.929688 " style=" stroke:none;fill-rule:nonzero;fill:rgb(92.156863%,46.666667%,13.333333%);fill-opacity:1;" />
</g>
</svg>